<?xml version="1.0" encoding="UTF-8" standalone="no"?>
<!-- Created with Inkscape (http://www.inkscape.org/) -->

<svg
   width="210mm"
   height="297mm"
   viewBox="0 0 210 297"
   version="1.1"
   id="svg1"
   inkscape:version="1.3.2 (091e20ef0f, 2023-11-25)"
   sodipodi:docname="drawing.svg"
   xmlns:inkscape="http://www.inkscape.org/namespaces/inkscape"
   xmlns:sodipodi="http://sodipodi.sourceforge.net/DTD/sodipodi-0.dtd"
   xmlns="http://www.w3.org/2000/svg"
   xmlns:svg="http://www.w3.org/2000/svg">
  <sodipodi:namedview
     id="namedview1"
     pagecolor="#ffffff"
     bordercolor="#000000"
     borderopacity="0.25"
     inkscape:showpageshadow="2"
     inkscape:pageopacity="0.0"
     inkscape:pagecheckerboard="0"
     inkscape:deskcolor="#d1d1d1"
     inkscape:document-units="mm"
     inkscape:zoom="1.1033628"
     inkscape:cx="389.26454"
     inkscape:cy="620.3762"
     inkscape:window-width="1704"
     inkscape:window-height="993"
     inkscape:window-x="0"
     inkscape:window-y="0"
     inkscape:window-maximized="1"
     inkscape:current-layer="layer1" />
  <defs
     id="defs1">
    <rect
       x="132.07336"
       y="275.32539"
       width="559.16629"
       height="722.63292"
       id="rect2" />
    <rect
       x="88.319866"
       y="289.91582"
       width="665.32717"
       height="666.27059"
       id="rect1" />
  </defs>
  <g
     inkscape:label="Layer 1"
     inkscape:groupmode="layer"
     id="layer1">
    <text
       xml:space="preserve"
       transform="scale(0.26458333)"
       id="text1"
       style="fill:#000000;white-space:pre;shape-inside:url(#rect1)" />
    <text
       xml:space="preserve"
       transform="matrix(0.26458333,0,0,0.26458333,-9.4355113,36.345623)"
       id="text2"
       style="font-size:266.667px;line-height:0.8;white-space:pre;shape-inside:url(#rect2);fill:#028cb5;fill-opacity:1"
       x="8.0478516"
       y="0"><tspan
         x="247.55434"
         y="451.26389"
         id="tspan3"><tspan
           style="font-family:'FiraCode Nerd Font Mono';-inkscape-font-specification:'FiraCode Nerd Font Mono';text-align:center;text-anchor:middle"
           id="tspan1">DS
</tspan></tspan><tspan
         x="247.55434"
         y="667.20163"
         id="tspan6"><tspan
           style="fill:#000000"
           id="tspan5">AI</tspan></tspan></text>
    <g
       id="g1"
       transform="matrix(0.42969965,0,0,0.42029052,-22.600561,219.68181)">
      <path
         id="path2"
         d="M 2906.18,1075.8 H 1288.53 v -97.05 h 1617.65 v 97.05"
         style="fill:#028cb5;fill-opacity:1;fill-rule:nonzero;stroke:none"
         transform="matrix(0.13333333,0,0,-0.13333333,0,143.44)" />
      <path
         id="path3"
         d="m 2906.23,551.02 c -74.67,105.14 -188.38,193.234 -327.25,255.14 -138.88,61.895 -303,97.578 -478.79,97.578 -175.62,0 -339.58,-35.605 -478.36,-97.394 C 1483.08,744.57 1369.4,656.598 1294.65,551.637 l -12.31,-15.348 h 189.56 3.18 c 136.76,159.918 344.07,271.543 628.73,271.649 285.34,-0.106 493.48,-111.083 630,-271.649 h 3.22 181.29 l -12.09,14.731"
         style="fill:#028cb5;fill-opacity:1;fill-rule:nonzero;stroke:none"
         transform="matrix(0.13333333,0,0,-0.13333333,0,143.44)" />
    </g>
  </g>
</svg>
